<?xml version="1.0" encoding="UTF-8"?>
<svg xmlns="http://www.w3.org/2000/svg" viewBox="0 0 330.05 109.25">
  <g id="Layer_1" data-name="Layer 1">
    <line x1="174.31" y1="3.65" x2="174.31" y2="105.01" style="fill: none; opacity: .5; stroke: #78777a; stroke-linecap: round; stroke-miterlimit: 10;"/>
  </g>
  <g id="Layer_2" data-name="Layer 2">
    <g>
      <path d="M131.8,18.13h4.39l14.45,18.65v-18.65h4.66v26.98h-3.97l-14.88-19.19v19.19h-4.66v-26.98Z" style="fill: #78777a;"/>
      <path d="M97.74,31.7v-.08c0-7.59,5.86-13.95,14.14-13.95s14.07,6.28,14.07,13.87v.08c0,7.59-5.86,13.95-14.14,13.95s-14.07-6.28-14.07-13.87ZM120.97,31.7v-.08c0-5.24-3.82-9.6-9.17-9.6s-9.1,4.28-9.1,9.52v.08c0,5.24,3.82,9.6,9.17,9.6s9.1-4.28,9.1-9.52Z" style="fill: #78777a;"/>
      <path d="M70.87,18.13h12.02c3.39,0,6.05,1,7.79,2.7,1.43,1.46,2.24,3.47,2.24,5.82v.08c0,4.43-2.66,7.09-6.44,8.17l7.28,10.21h-5.59l-6.63-9.4h-5.94v9.4h-4.74v-26.98ZM82.55,31.5c3.39,0,5.55-1.77,5.55-4.51v-.08c0-2.89-2.08-4.47-5.59-4.47h-6.9v9.06h6.94Z" style="fill: #78777a;"/>
      <path d="M42.55,18.13h4.74v13.57l12.83-13.57h5.82l-11.22,11.6,11.72,15.38h-5.74l-9.21-12.14-4.2,4.32v7.82h-4.74v-26.98Z" style="fill: #78777a;"/>
      <path d="M21.66,17.94h4.39l11.87,27.17h-5.01l-2.74-6.51h-12.76l-2.77,6.51h-4.86l11.87-27.17ZM28.44,34.39l-4.66-10.79-4.62,10.79h9.29Z" style="fill: #78777a;"/>
      <path d="M9.78,51.85h3.33l5.41,8.41,5.41-8.41h3.33v17.78h-3.12v-12.75l-5.61,8.38h-.1l-5.56-8.33v12.7h-3.07v-17.78Z" style="fill: #1e376c;"/>
      <path d="M37.13,51.73h2.9l7.82,17.91h-3.3l-1.8-4.29h-8.41l-1.83,4.29h-3.2l7.82-17.91ZM41.6,62.57l-3.07-7.11-3.05,7.11h6.12Z" style="fill: #1e376c;"/>
      <path d="M49.66,51.85h7.93c2.24,0,3.99.66,5.13,1.78.94.97,1.47,2.29,1.47,3.84v.05c0,2.92-1.75,4.67-4.24,5.39l4.8,6.73h-3.68l-4.37-6.2h-3.91v6.2h-3.12v-17.78ZM57.35,60.67c2.24,0,3.66-1.17,3.66-2.97v-.05c0-1.9-1.37-2.95-3.68-2.95h-4.55v5.97h4.57Z" style="fill: #1e376c;"/>
      <path d="M73.58,51.73h2.9l7.82,17.91h-3.3l-1.8-4.29h-8.41l-1.83,4.29h-3.2l7.82-17.91ZM78.05,62.57l-3.07-7.11-3.05,7.11h6.12Z" style="fill: #1e376c;"/>
      <path d="M87.94,54.75h-5.64v-2.9h14.43v2.9h-5.64v14.88h-3.15v-14.88Z" style="fill: #1e376c;"/>
      <path d="M100.03,51.85h3.12v7.39h8.48v-7.39h3.12v17.78h-3.12v-7.49h-8.48v7.49h-3.12v-17.78Z" style="fill: #1e376c;"/>
      <path d="M117.91,60.79v-.05c0-5,3.86-9.2,9.32-9.2s9.27,4.14,9.27,9.14v.05c0,5-3.86,9.2-9.32,9.2s-9.27-4.14-9.27-9.14ZM133.23,60.79v-.05c0-3.45-2.51-6.32-6.05-6.32s-5.99,2.82-5.99,6.27v.05c0,3.45,2.51,6.32,6.05,6.32s5.99-2.82,5.99-6.27Z" style="fill: #1e376c;"/>
      <path d="M139.8,51.85h2.9l9.53,12.29v-12.29h3.07v17.78h-2.62l-9.81-12.65v12.65h-3.07v-17.78Z" style="fill: #1e376c;"/>
      <path d="M9.84,84.38h5.32c1.5,0,2.68.43,3.44,1.16.63.63.99,1.49.99,2.5v.03c0,1.9-1.18,3.04-2.85,3.51l3.22,4.39h-2.47l-2.93-4.04h-2.62v4.04h-2.1v-11.58ZM15,90.12c1.5,0,2.45-.76,2.45-1.94v-.03c0-1.24-.92-1.92-2.47-1.92h-3.05v3.89h3.07Z" style="fill: #78777a;"/>
      <path d="M29.35,84.3h1.94l5.25,11.67h-2.22l-1.21-2.8h-5.64l-1.23,2.8h-2.15l5.25-11.67ZM32.35,91.36l-2.06-4.63-2.05,4.63h4.11Z" style="fill: #78777a;"/>
      <path d="M40.28,90.2v-.03c0-3.29,2.54-5.99,6.15-5.99,2.2,0,3.53.74,4.67,1.8l-1.35,1.51c-.95-.86-1.98-1.44-3.34-1.44-2.28,0-3.94,1.82-3.94,4.09v.03c0,2.27,1.65,4.12,3.94,4.12,1.47,0,2.4-.58,3.43-1.51l1.35,1.32c-1.24,1.26-2.61,2.05-4.84,2.05-3.48,0-6.07-2.63-6.07-5.96Z" style="fill: #78777a;"/>
      <path d="M56.35,84.38h8.85v1.82h-6.75v3.01h5.98v1.82h-5.98v3.11h6.83v1.82h-8.93v-11.58Z" style="fill: #78777a;"/>
      <path d="M80.73,94.27l1.26-1.46c1.14.96,2.28,1.51,3.77,1.51,1.3,0,2.11-.58,2.11-1.46v-.03c0-.83-.48-1.27-2.69-1.77-2.54-.6-3.97-1.32-3.97-3.46v-.03c0-1.99,1.7-3.36,4.07-3.36,1.74,0,3.12.51,4.33,1.46l-1.12,1.54c-1.07-.78-2.15-1.19-3.24-1.19-1.23,0-1.94.61-1.94,1.37v.03c0,.89.55,1.29,2.83,1.82,2.52.6,3.83,1.47,3.83,3.39v.03c0,2.17-1.76,3.46-4.26,3.46-1.82,0-3.54-.61-4.98-1.85Z" style="fill: #78777a;"/>
      <path d="M95.4,84.38h8.85v1.82h-6.75v3.01h5.98v1.82h-5.98v3.11h6.83v1.82h-8.93v-11.58Z" style="fill: #78777a;"/>
      <path d="M109.99,84.38h5.32c1.5,0,2.68.43,3.44,1.16.63.63.99,1.49.99,2.5v.03c0,1.9-1.18,3.04-2.85,3.51l3.22,4.39h-2.47l-2.93-4.04h-2.62v4.04h-2.1v-11.58ZM115.16,90.12c1.5,0,2.45-.76,2.45-1.94v-.03c0-1.24-.92-1.92-2.47-1.92h-3.05v3.89h3.07Z" style="fill: #78777a;"/>
      <path d="M124.89,84.38h2.1v11.58h-2.1v-11.58Z" style="fill: #78777a;"/>
      <path d="M132.41,84.38h8.85v1.82h-6.75v3.01h5.98v1.82h-5.98v3.11h6.83v1.82h-8.93v-11.58Z" style="fill: #78777a;"/>
      <path d="M145.95,94.27l1.26-1.46c1.14.96,2.28,1.51,3.77,1.51,1.3,0,2.11-.58,2.11-1.46v-.03c0-.83-.48-1.27-2.69-1.77-2.54-.6-3.97-1.32-3.97-3.46v-.03c0-1.99,1.7-3.36,4.07-3.36,1.74,0,3.12.51,4.33,1.46l-1.12,1.54c-1.07-.78-2.15-1.19-3.24-1.19-1.23,0-1.94.61-1.94,1.37v.03c0,.89.55,1.29,2.83,1.82,2.52.6,3.83,1.47,3.83,3.39v.03c0,2.17-1.76,3.46-4.26,3.46-1.82,0-3.55-.61-4.98-1.85Z" style="fill: #78777a;"/>
      <rect x="7.27" y="75.58" width="150.53" height="3.31" style="fill: #00aeef;"/>
      <rect x="7.27" y="8.38" width="150.53" height="3.31" style="fill: #00aeef;"/>
    </g>
    <g>
      <g>
        <path d="M222.62,71.01c4.39,3.39,4.02,11.8-4.75,13.56v12.35c14.63-.65,21.23-19.29,4.75-25.91Z" style="fill: #008fd2;"/>
        <path d="M234.62,82.61c0,.07,0,.13.01.2,3.51-3.68,5.77-8.3,6.19-13.37h-15.95c8.77,4.22,9.65,10.87,9.75,13.17Z" style="fill: #18448b;"/>
        <path d="M206.84,69.44h-14.76c.59,10.86,10.86,19.51,23.45,19.52v-12.03c-4.55-.41-8.16-3.54-8.69-7.49Z" style="fill: #00bce7;"/>
        <path d="M210.03,67.13c-8.77-7.75-.89-17.55,7.69-17.69l5.55-14.02c-24.82-6.64-36.54,23.24-13.25,31.71Z" style="fill: #f9a025;"/>
        <path d="M195.36,48.45c.02-.11.04-.23.06-.34-6.07,4.68-9.99,11.42-10.3,18.98h19.35c-.79-.47-11.14-6.28-9.11-18.64Z" style="fill: #f15d22;"/>
      </g>
      <path d="M226.46,56.87s1.93,2.28,4.74,2.28c1.77,0,3.24-1.07,3.24-2.81,0-3.96-9.14-3.35-9.14-9.24,0-2.84,2.49-5.06,6.05-5.06,2.01,0,5.38.91,5.38,3.48v1.55h-2.47v-.88c0-.99-1.42-1.71-2.92-1.71-2.04,0-3.32,1.13-3.32,2.55,0,3.83,9.11,2.97,9.11,9.19,0,2.89-2.25,5.38-6,5.38-4.02,0-6.27-2.81-6.27-2.81l1.58-1.9ZM240.21,50.52c0-.4-.21-.59-.59-.59h-1.1v-2.22h2.55c1.23,0,1.74.51,1.74,1.66v6.43c0,1.88.37,3.38,2.52,3.38,2.79,0,4.42-2.44,4.42-5.12v-6.35h2.6v10.74c0,.4.21.59.59.59h1.1v2.22h-2.49c-1.15,0-1.71-.54-1.71-1.5v-.51c0-.43.03-.78.03-.78h-.05c-.56,1.34-2.3,3.11-4.98,3.11-3.05,0-4.61-1.61-4.61-5.2v-5.87ZM256.87,50.52c0-.4-.21-.59-.59-.59h-1.1v-2.22h2.49c1.18,0,1.72.51,1.72,1.5v.51c0,.43-.03.78-.03.78h.05c.64-1.58,2.52-3.11,4.63-3.11,2.3,0,3.62,1.05,4.07,3.08h.05c.75-1.63,2.63-3.08,4.82-3.08,3.05,0,4.47,1.74,4.47,5.2v5.87c0,.4.21.59.59.59h1.1v2.22h-2.57c-1.21,0-1.72-.51-1.72-1.71v-6.4c0-1.9-.37-3.4-2.38-3.4-1.88,0-3.32,1.63-3.8,3.48-.13.56-.21,1.15-.21,1.85v6.19h-2.6v-8.12c0-1.77-.27-3.4-2.33-3.4s-3.37,1.66-3.88,3.59c-.13.54-.19,1.13-.19,1.74v6.19h-2.6v-10.74ZM281.82,50.52c0-.4-.21-.59-.59-.59h-1.1v-2.22h2.49c1.18,0,1.71.51,1.71,1.5v.51c0,.43-.03.78-.03.78h.05c.64-1.58,2.52-3.11,4.63-3.11,2.3,0,3.62,1.05,4.07,3.08h.05c.75-1.63,2.63-3.08,4.82-3.08,3.05,0,4.47,1.74,4.47,5.2v5.87c0,.4.21.59.59.59h1.1v2.22h-2.57c-1.21,0-1.71-.51-1.71-1.71v-6.4c0-1.9-.38-3.4-2.38-3.4-1.87,0-3.32,1.63-3.8,3.48-.13.56-.21,1.15-.21,1.85v6.19h-2.6v-8.12c0-1.77-.27-3.4-2.33-3.4s-3.38,1.66-3.88,3.59c-.13.54-.19,1.13-.19,1.74v6.19h-2.6v-10.74ZM313.6,52.83h.59v-.13c0-2.38-.88-3.24-3-3.24-.64,0-2.22.16-2.22,1.05v.78h-2.44v-1.34c0-2.22,3.38-2.54,4.69-2.54,4.39,0,5.57,2.3,5.57,5.3v5.76c0,.4.21.59.59.59h1.1v2.22h-2.44c-1.21,0-1.69-.59-1.69-1.55,0-.46.05-.8.05-.8h-.05s-1.07,2.68-4.31,2.68c-2.33,0-4.61-1.42-4.61-4.13,0-4.37,5.89-4.63,8.17-4.63ZM310.6,59.5c2.2,0,3.62-2.3,3.62-4.31v-.46h-.67c-1.96,0-5.49.11-5.49,2.6,0,1.1.83,2.17,2.55,2.17ZM250.67,68.51h1.67v7.75h9.89v-7.75h1.67v17.03h-1.67v-7.78h-9.89v7.78h-1.67v-17.03ZM272.67,73.07c3.37,0,5.09,2.59,5.09,5.62,0,.29-.05.85-.05.85h-9.35c.07,3.13,2.2,4.82,4.72,4.82,2.23,0,3.71-1.48,3.71-1.48l.75,1.26s-1.77,1.7-4.51,1.7c-3.63,0-6.37-2.62-6.37-6.37,0-4,2.71-6.4,6.01-6.4ZM276.08,78.18c-.1-2.54-1.65-3.73-3.47-3.73-2.04,0-3.8,1.28-4.19,3.73h7.66ZM287.09,78.01h.68v-.32c0-2.35-1.28-3.15-3.03-3.15-2.01,0-3.44,1.16-3.44,1.16l-.78-1.26s1.6-1.38,4.34-1.38c2.93,0,4.56,1.62,4.56,4.68v7.8h-1.58v-1.33c0-.61.05-1.02.05-1.02h-.05s-1.02,2.64-4.07,2.64c-2.04,0-4.14-1.19-4.14-3.61,0-4.12,5.35-4.22,7.46-4.22ZM284.03,84.43c2.33,0,3.73-2.42,3.73-4.53v-.53h-.7c-1.91,0-5.74.07-5.74,2.76,0,1.14.9,2.3,2.71,2.3ZM292.61,68.51h1.65v13.79c0,1.6.73,1.84,1.36,1.84.22,0,.41-.02.41-.02v1.48s-.29.05-.61.05c-1.02,0-2.81-.32-2.81-2.98v-14.15ZM298.81,74.89h-1.6v-1.38h1.62v-3.51h1.62v3.51h3.05v1.38h-3.05v6.06c0,2.86,1.82,3.22,2.74,3.22.34,0,.56-.05.56-.05v1.48s-.27.05-.7.05c-1.41,0-4.24-.46-4.24-4.53v-6.23ZM306.22,68.51h1.65v6.59c0,.56-.05.99-.05.99h.05c.46-1.16,2.08-3.03,4.85-3.03,3,0,4.07,1.72,4.07,4.73v7.75h-1.65v-7.32c0-1.91-.29-3.61-2.64-3.61-2.08,0-3.88,1.43-4.43,3.47-.15.48-.19,1.04-.19,1.62v5.84h-1.65v-17.03ZM318.47,82.66v-.36h2.6v.36h-1.09v2.89h-.43v-2.89h-1.09ZM322.04,82.29l1.03,2.74,1.03-2.74h.59v3.26h-.41v-2.71h0l-1.02,2.71h-.37l-1.02-2.71h0v2.71h-.41v-3.26h.59Z" style="fill: #18448b;"/>
    </g>
    <g>
      <path d="M197.57,9.64h3.3c1.93,0,3.1,1.14,3.1,2.79v.02c0,1.87-1.46,2.84-3.27,2.84h-1.35v2.43h-1.78v-8.08ZM200.76,13.72c.89,0,1.41-.53,1.41-1.22v-.02c0-.8-.55-1.22-1.44-1.22h-1.37v2.47h1.41Z" style="fill: #78777a;"/>
      <path d="M207.59,9.64h3.7c1.03,0,1.82.29,2.36.82.45.45.69,1.09.69,1.85v.02c0,1.31-.7,2.13-1.73,2.51l1.98,2.89h-2.08l-1.73-2.59h-1.4v2.59h-1.78v-8.08ZM211.17,13.57c.87,0,1.36-.46,1.36-1.14v-.02c0-.76-.53-1.16-1.4-1.16h-1.77v2.32h1.8Z" style="fill: #78777a;"/>
      <path d="M218.25,9.64h6.1v1.58h-4.33v1.64h3.81v1.58h-3.81v1.7h4.39v1.58h-6.16v-8.08Z" style="fill: #78777a;"/>
      <path d="M227.74,16.55l1.05-1.26c.73.6,1.49.98,2.41.98.73,0,1.17-.29,1.17-.76v-.02c0-.45-.28-.68-1.63-1.03-1.63-.42-2.68-.87-2.68-2.47v-.02c0-1.47,1.18-2.44,2.83-2.44,1.18,0,2.18.37,3,1.03l-.92,1.34c-.72-.5-1.42-.8-2.1-.8s-1.04.31-1.04.7v.02c0,.53.35.7,1.74,1.06,1.64.43,2.56,1.02,2.56,2.43v.02c0,1.61-1.22,2.51-2.97,2.51-1.22,0-2.46-.43-3.43-1.29Z" style="fill: #78777a;"/>
      <path d="M238,9.64h6.1v1.58h-4.33v1.64h3.81v1.58h-3.81v1.7h4.39v1.58h-6.16v-8.08Z" style="fill: #78777a;"/>
      <path d="M248.04,9.64h1.64l3.79,4.98v-4.98h1.76v8.08h-1.51l-3.92-5.14v5.14h-1.76v-8.08Z" style="fill: #78777a;"/>
      <path d="M261.36,11.28h-2.46v-1.64h6.7v1.64h-2.46v6.44h-1.78v-6.44Z" style="fill: #78777a;"/>
      <path d="M269.27,9.64h6.1v1.58h-4.33v1.64h3.81v1.58h-3.81v1.7h4.39v1.58h-6.16v-8.08Z" style="fill: #78777a;"/>
      <path d="M279.31,9.64h3.15c2.54,0,4.3,1.74,4.3,4.02v.02c0,2.28-1.76,4.04-4.3,4.04h-3.15v-8.08ZM281.09,11.25v4.87h1.37c1.46,0,2.44-.98,2.44-2.41v-.02c0-1.43-.98-2.44-2.44-2.44h-1.37Z" style="fill: #78777a;"/>
      <path d="M296.43,9.64h3.75c.92,0,1.65.25,2.11.72.37.37.55.82.55,1.37v.02c0,.91-.48,1.42-1.06,1.74.94.36,1.51.9,1.51,1.99v.02c0,1.48-1.2,2.22-3.03,2.22h-3.85v-8.08ZM301.08,12.03c0-.53-.42-.83-1.17-.83h-1.76v1.71h1.64c.79,0,1.28-.25,1.28-.85v-.02ZM300.22,14.39h-2.06v1.78h2.11c.79,0,1.26-.28,1.26-.88v-.02c0-.54-.4-.88-1.32-.88Z" style="fill: #78777a;"/>
      <path d="M309,14.54l-3.11-4.9h2.08l1.93,3.25,1.96-3.25h2.02l-3.11,4.86v3.22h-1.78v-3.19Z" style="fill: #78777a;"/>
    </g>
  </g>
</svg>